<svg fill="none" height="24" viewBox="0 0 132 24" width="132" xmlns="http://www.w3.org/2000/svg"><g fill="#fff"><path d="m6.83027 17.9881v-5.1081h14.56543c.5838 0 1.0702-.0876 1.4594-.2627.4087-.1946.613-.5935.613-1.1968 0-.6227-.2043-1.0216-.613-1.1967-.3892-.1752-.8756-.26272-1.4594-.26272h-14.0984v12.84322h-7.2973v-18.68106h20.2573c1.4595 0 2.8216.10703 4.0865.32109 1.2843.19459 2.4032.55459 3.3567 1.08.9536.5254 1.7027 1.26486 2.2476 2.21837.5449.95352.8173 2.17946.8173 3.6778 0 1.4984-.2724 2.6854-.8173 3.5611s-1.294 1.5276-2.2476 1.9557c-.9535.4281-2.0724.7103-3.3567.8465-1.2649.1362-2.627.2043-4.0865.2043z"/><path d="m32.9475 9.3773h18.506v4.3784h-18.506zm11.7633-6.71352h6.7427v4.67027h-3.8238c-.7784-.01945-1.3816.01946-1.8097.11676-.4087.0973-.7006.29189-.8757.58378-.1557.2919-.2335.73946-.2335 1.34271v13.427h-7.0054v-14.88646c0-1.16757.214-2.14054.6421-2.91892.4476-.77838 1.1773-1.36216 2.1892-1.75135 1.0314-.38919 2.4227-.58379 4.1741-.58379z"/><path d="m66.9187 23.2422c-3.094 0-5.6724-.253-7.7351-.759-2.0432-.5059-3.5805-1.3135-4.6119-2.4227-1.0119-1.1091-1.5178-2.5686-1.5178-4.3783 0-1.8098.5059-3.2692 1.5178-4.3784 1.0314-1.1287 2.5687-1.94596 4.6119-2.45191 2.0627-.5254 4.6411-.7881 7.7351-.7881 3.0746 0 5.6238.2627 7.6476.7881 2.0432.50595 3.5708 1.32321 4.5827 2.45191 1.0119 1.1092 1.5178 2.5686 1.5178 4.3784 0 1.8097-.5059 3.2692-1.5178 4.3783-1.0119 1.1092-2.5395 1.9168-4.5827 2.4227-2.0238.506-4.573.759-7.6476.759zm0-4.2325c1.44 0 2.6465-.1167 3.6195-.3502.973-.253 1.7124-.6227 2.2184-1.1092.5059-.506.7589-1.1287.7589-1.8681 0-.7395-.253-1.3622-.7589-1.8681-.4865-.506-1.2163-.8855-2.1892-1.1384-.973-.253-2.1892-.3795-3.6487-.3795-1.44 0-2.6659.1265-3.6778.3795-.9924.2529-1.7514.6324-2.2768 1.1384-.5059.4864-.7589 1.1091-.7589 1.8681 0 .7394.253 1.3621.7589 1.8681.506.4865 1.2552.8562 2.2476 1.1092 1.0119.2335 2.2476.3502 3.707.3502z"/><path d="m83.4289 2.66378h7.0054v20.14052h-7.0054z"/><path d="m101.215 1v4.37838h-7.4137v-4.37838zm-7.2094 7.50162h7.0054v14.30268h-7.0054z"/><path d="m117.715 23.2422c-3.094 0-5.673-.253-7.735-.759-2.044-.5059-3.581-1.3135-4.612-2.4227-1.012-1.1091-1.518-2.5686-1.518-4.3783 0-1.8098.506-3.2692 1.518-4.3784 1.031-1.1287 2.568-1.94596 4.612-2.45191 2.062-.5254 4.641-.7881 7.735-.7881 3.074 0 5.624.2627 7.647.7881 2.044.50595 3.571 1.32321 4.583 2.45191 1.012 1.1092 1.518 2.5686 1.518 4.3784 0 1.8097-.506 3.2692-1.518 4.3783-1.012 1.1092-2.539 1.9168-4.583 2.4227-2.023.506-4.573.759-7.647.759zm0-4.2325c1.44 0 2.646-.1167 3.619-.3502.973-.253 1.713-.6227 2.219-1.1092.506-.506.759-1.1287.759-1.8681 0-.7395-.253-1.3622-.759-1.8681-.487-.506-1.217-.8855-2.19-1.1384-.973-.253-2.189-.3795-3.648-.3795-1.44 0-2.666.1265-3.678.3795-.993.2529-1.751.6324-2.277 1.1384-.506.4864-.759 1.1091-.759 1.8681 0 .7394.253 1.3621.759 1.8681.506.4865 1.255.8562 2.248 1.1092 1.012.2335 2.247.3502 3.707.3502z"/></g></svg>